<svg xmlns="http://www.w3.org/2000/svg" width="32" height="32" viewBox="0 0 640 640"><!-- Icon from Font Awesome Solid by Dave Gandy - https://creativecommons.org/licenses/by/4.0/ --><path fill="currentColor" d="M80 416h48l134.1 119.2c6.4 5.7 14.6 8.8 23.1 8.8c19.2 0 34.8-15.6 34.8-34.8V130.8c0-19.2-15.6-34.8-34.8-34.8c-8.5 0-16.7 3.1-23.1 8.8L128 224H80c-26.5 0-48 21.5-48 48v96c0 26.5 21.5 48 48 48m319-177c-9.4 9.4-9.4 24.6 0 33.9l47 47l-47 47c-9.4 9.4-9.4 24.6 0 33.9s24.6 9.4 33.9 0l47-47l47 47c9.4 9.4 24.6 9.4 33.9 0s9.4-24.6 0-33.9l-47-47l47-47c9.4-9.4 9.4-24.6 0-33.9s-24.6-9.4-33.9 0l-47 47l-47-47c-9.4-9.4-24.6-9.4-33.9 0"/></svg>
