<?xml version="1.0" encoding="UTF-8" standalone="no"?>
<!DOCTYPE svg PUBLIC "-//W3C//DTD SVG 1.1//EN" "http://www.w3.org/Graphics/SVG/1.1/DTD/svg11.dtd">
<svg width="100%" height="100%" viewBox="0 0 32 32" version="1.1" xmlns="http://www.w3.org/2000/svg" xmlns:xlink="http://www.w3.org/1999/xlink" xml:space="preserve" xmlns:serif="http://www.serif.com/" style="fill-rule:evenodd;clip-rule:evenodd;stroke-linejoin:round;stroke-miterlimit:2;">
    <g transform="matrix(0.05,0,0,0.05,0,0)">
        <path d="M80,416L128,416L262.1,535.2C268.5,540.9 276.7,544 285.2,544C304.4,544 320,528.4 320,509.2L320,130.8C320,111.6 304.4,96 285.2,96C276.7,96 268.5,99.1 262.1,104.8L128,224L80,224C53.5,224 32,245.5 32,272L32,368C32,394.5 53.5,416 80,416M399,239C389.6,248.4 389.6,263.6 399,272.9L446,319.9L399,366.9C389.6,376.3 389.6,391.5 399,400.8C408.4,410.1 423.6,410.2 432.9,400.8L479.9,353.8L526.9,400.8C536.3,410.2 551.5,410.2 560.8,400.8C570.1,391.4 570.2,376.2 560.8,366.9L513.8,319.9L560.8,272.9C570.2,263.5 570.2,248.3 560.8,239C551.4,229.7 536.2,229.6 526.9,239L479.9,286L432.9,239C423.5,229.6 408.3,229.6 399,239" style="fill-rule:nonzero;"/>
    </g>
</svg>
