<?xml version="1.0" encoding="UTF-8" standalone="no"?>
<!DOCTYPE svg PUBLIC "-//W3C//DTD SVG 1.1//EN" "http://www.w3.org/Graphics/SVG/1.1/DTD/svg11.dtd">
<svg width="100%" height="100%" viewBox="0 0 32 32" version="1.1" xmlns="http://www.w3.org/2000/svg" xmlns:xlink="http://www.w3.org/1999/xlink" xml:space="preserve" xmlns:serif="http://www.serif.com/" style="fill-rule:evenodd;clip-rule:evenodd;stroke-linejoin:round;stroke-miterlimit:2;">
    <g transform="matrix(0.05,0,0,0.05,0,0)">
        <path d="M412.6,245.5C402.3,237.1 387.2,238.7 378.8,249C370.4,259.3 372,274.4 382.3,282.8C393.1,291.6 400,305 400,320C400,335 393.1,348.4 382.3,357.3C372,365.7 370.5,380.8 378.8,391.1C387.1,401.4 402.3,402.9 412.6,394.6C434.1,376.9 448,350.1 448,320C448,289.9 434.1,263.1 412.6,245.5M80,416L128,416L262.1,535.2C268.5,540.9 276.7,544 285.2,544C304.4,544 320,528.4 320,509.2L320,130.8C320,111.6 304.4,96 285.2,96C276.7,96 268.5,99.1 262.1,104.8L128,224L80,224C53.5,224 32,245.5 32,272L32,368C32,394.5 53.5,416 80,416" style="fill-rule:nonzero;"/>
    </g>
</svg>
